<?xml version="1.0" encoding="UTF-8"?>
<svg id="Layer_2" xmlns="http://www.w3.org/2000/svg" xmlns:xlink="http://www.w3.org/1999/xlink" viewBox="0 0 829.95 290.65">
  <defs>
    <style>
      .cls-1 {
        fill: #fff;
      }

      .cls-2 {
        fill: #282828;
      }

      .cls-3 {
        clip-path: url(#clippath);
      }
    </style>
    <clipPath id="clippath">
      <rect class="cls-2" width="829.44" height="290.65"/>
    </clipPath>
  </defs>
  <g id="Layer_1-2" data-name="Layer_1">
    <g>
      <g>
        <rect class="cls-2" width="829.44" height="290.65"/>
        <g class="cls-3">
          <rect class="cls-2" width="829.95" height="290.65"/>
        </g>
      </g>
      <g>
        <path class="cls-1" d="M760.68,91.72s.19-.3.11-.48l-1.04-3.07c-.48-1.48-1.81-2.52-3.37-2.63l-22.25-1.89c-2.59-.22-5.03-1.33-6.92-3.11l-15.03-13.96c-.44-.41-1.04-.67-1.67-.67-2.67-.04-10.33-.19-13.88,0-25.21,1.07-39.76,33.72-19.4,50.75,7.77,6.29,20.32,7.66,27.5,2.55,5.81-4.07,8.92-11.59,7.14-18.58-1.74-7.22-9.37-12.29-16.66-10.36-4.96,1.07-8.77,6.55-7.81,11.29.07.3.3.48.59.48h2.7c.26,0,.48-.19.59-.41,2-4.59,7.85-4.4,10.29-.44,2.55,4.55-2.04,10.36-6.89,9.92-6.14-.22-9.96-2.92-12.03-8.33-.7-1.81-.48-4.59-.3-6.44.37-7.96,7.22-14.81,15.18-15.1.44,0,.93,0,1.41-.04,9.92.11,19.32,8.92,19.32,18.8v1.78c-.15,14.25-11.62,25.76-25.84,25.95l-9.29.11h-2.33c-4.4,0-8.66-1.74-11.77-4.89l-11.66-11.66c-.33-.33-.96-.11-.96.41v30.69l-.44.59c-2.11,2.67-5.92,6.74-8.96,8.25-.56.26-.85.78-1,1.18l-16.14,40.9h8.92l32.83-31.87s.33-.22.56-.22h17.14c4.89,0,9.74-.37,14.58-1.07l11.07-1.63c.56-.07,1.11.11,1.52.56l31.02,34.8h12.07l-19.58-39.72-.11-.07,8.07-25.21c.7-2.26.81-4.66.26-6.96l-3.74-15.81c-.04-.19,0-.41.15-.52l3.68-3.19,2.98,8.81c.11.26.48.3.63.07l.3-.48c1-1.7,1.59-3.59,1.7-5.55h-.04l.5-8.12,6.27-5.43ZM731.29,97.45v-3.89c0-2.81,2.33-5.07,5.18-5l6.22.22-11.4,8.66Z"/>
        <path class="cls-1" d="M713.19,163.6l-7,1.48c-.41.07-.7.44-.7.89l.19,27.47h6.4l10.7-20.36-8-8.96c-.41-.44-1-.67-1.59-.52Z"/>
        <path class="cls-1" d="M673.03,166.67l-11.62,11.29h-.04l12.66,15.51,9.14-.07-8.85-26.39c-.19-.56-.89-.74-1.3-.33Z"/>
        <path class="cls-1" d="M141.84,172.97c-2.33-5.11-4.52-10.22-6.59-15.32-2.06-5.08-4.02-10.02-5.86-14.74,3.25-1.46,6.34-3.26,9.23-5.51,4.15-3.22,7.44-7.26,9.99-12.18,2.55-4.92,3.81-10.59,3.81-17.29s-1.89-12.62-5.59-17.8c-3.7-5.15-8.85-9.18-15.47-12.07-6.63-2.89-14.33-4.33-23.1-4.33-6.92,0-13.66.26-20.14.78-6.48.52-12.99,1.3-19.51,2.33v.48c3,1.33,5.22,3.37,6.66,6.11,1.44,2.74,2.18,6.03,2.18,9.85v81.81c0,3.85-.74,7.11-2.18,9.85-1.44,2.74-3.66,4.78-6.66,6.11v.48h42.27v-.48c-2.89-1.33-5.07-3.37-6.59-6.11-1.52-2.74-2.26-6.03-2.26-9.85v-29.01c.43.1.87.17,1.31.25,3.15,8.56,7.14,16.33,12.09,23.24,5.59,7.81,11.92,14.47,19.06,19.99,7.14,5.55,14.62,9.88,22.47,13.1l.3-.48c-2.89-4.44-5.63-9.14-8.14-14.1-2.55-4.96-4.96-9.99-7.29-15.1ZM102.05,93.27c0-4.74.78-8.4,2.26-10.99,1.48-2.59,3.52-3.89,6.11-3.89,3.07,0,5.7,1.37,7.88,4.11,2.18,2.74,3.85,6.59,5.03,11.55,1.18,4.96,1.78,10.81,1.78,17.51,0,9.51-1.7,16.92-5.11,22.17-3.41,5.26-8.48,7.88-15.18,7.88-.89,0-1.81-.06-2.78-.16v-48.18Z"/>
        <path class="cls-1" d="M222.65,184.52c-.63.41-1.33.74-2.11,1s-1.52.37-2.26.37c-1.55,0-2.89-.67-4.03-2.07-1.15-1.41-1.7-3.37-1.7-5.96,0-3.52.04-7.4.15-11.7.07-4.29.19-8.7.3-13.18.07-4.52.19-8.88.3-13.1.11-4.26.15-8.07.15-11.48,0-4.26-.93-7.77-2.85-10.55-1.89-2.78-4.74-4.85-8.51-6.26-3.78-1.41-8.44-2.11-14.03-2.11-3.85,0-7.66.52-11.48,1.48-3.85,1-7.33,2.37-10.48,4.18-3.15,1.81-5.66,4.03-7.59,6.74-1.89,2.7-2.85,5.74-2.85,9.14,0,3.18.89,5.74,2.63,7.59,1.78,1.85,3.92,2.78,6.51,2.78,2.18,0,4.11-.63,5.74-1.92,1.63-1.3,3.11-2.96,4.4-5.03,1.3-2.07,2.41-4.26,3.41-6.51.96-2.3,1.92-4.44,2.85-6.51.93-2.07,1.85-3.74,2.85-5.03.96-1.3,2.11-1.92,3.33-1.92.96,0,1.67.48,2.18,1.48.52,1,.78,2.26.78,3.81,0,2.48-.04,5.59-.07,9.29-.04,3.74-.11,7.81-.22,12.25-.04,2.1-.09,4.25-.14,6.37-8.27,1.22-15.16,3.21-20.63,5.92-5.55,2.74-9.66,6-12.4,9.77-2.73,3.76-4.1,7.86-4.11,12.28,0,3.82.75,7.02,2.18,9.7,1.44,2.67,3.37,4.7,5.74,6.11,2.37,1.41,4.89,2.11,7.59,2.11,2.18,0,4.37-.37,6.59-1.15,2.22-.78,4.52-2,6.89-3.7,2.37-1.7,4.89-4,7.59-6.89h.24c.2,2.47.84,4.49,1.94,6.07,1.44,2.04,3.33,3.55,5.59,4.48,2.3.93,4.7,1.41,7.29,1.41,2.26,0,4.59-.3,6.96-.93,2.37-.59,4.63-1.55,6.74-2.78s3.81-2.7,5.03-4.48l-.48-1.07ZM186.08,181.04c-1.15.41-2.22.63-3.26.63-1.96,0-3.48-.93-4.55-2.78-1.07-1.85-1.63-4.66-1.63-8.37,0-2.96.33-5.92,1-8.81.67-2.89,2-5.37,3.96-7.37,1.91-1.98,4.68-3.21,8.24-3.76-.03,1.39-.06,2.76-.09,4.16-.07,4.55-.19,8.96-.22,13.18-.07,4.19-.07,7.95-.07,11.31-1.2.8-2.32,1.42-3.37,1.79Z"/>
        <path class="cls-1" d="M152.76,175.67s0-.03,0-.04c0-.02,0-.04,0-.07v.11Z"/>
        <path class="cls-1" d="M292.83,185c-.93-2.59-1.41-5.37-1.41-8.37v-50.97c0-4.85-1.15-8.77-3.48-11.77-2.33-2.96-5.63-4.48-9.85-4.48-2.89,0-6.03.85-9.44,2.63-3.41,1.78-6.59,3.89-9.59,6.37-3,2.48-5.44,4.78-7.29,6.96l-.3-.15c.07-.81.19-1.96.22-3.48.07-1.48.07-2.96.07-4.4v-8.85h-.48c-2,2.07-4.63,4-8,5.81-3.37,1.81-6.92,3.26-10.7,4.33-3.78,1.07-7.4,1.67-10.92,1.78v.48c2.37,1.22,4.11,3,5.18,5.26,1.07,2.26,1.63,5.4,1.63,9.44v41.05c0,3-.59,5.74-1.85,8.22-1.26,2.48-2.89,4.52-4.96,6.18h.11v.48h36.39v-.48c-1.96-2.07-3.52-4.26-4.66-6.51-1.15-2.26-1.7-4.85-1.7-7.74v-48.97c1.74-1.15,3.74-2,5.96-2.55,2.22-.56,4-.81,5.33-.7,1.78.11,3.07.96,3.89,2.55.81,1.63,1.22,4.03,1.22,7.22v42.46c0,2.89-.52,5.48-1.55,7.74-1.04,2.3-2.59,4.44-4.66,6.51v.48h34.87v-.48c-1.78-1.44-3.11-3.44-4.03-6.03Z"/>
        <path class="cls-1" d="M381.71,101.9c2.07,1.37,4.33,2.07,6.81,2.07s4.89-.67,6.89-2.07c2.04-1.41,3.66-3.26,4.89-5.59,1.22-2.33,1.85-4.78,1.85-7.66s-.63-5.48-1.85-7.81c-1.26-2.33-2.89-4.18-4.89-5.59-2-1.37-4.4-2.07-6.89-2.07s-4.74.67-6.81,2.07c-2.07,1.41-3.7,3.26-4.89,5.59-1.18,2.3-1.78,5.03-1.78,7.81s.59,5.33,1.78,7.66c1.18,2.33,2.81,4.18,4.89,5.59Z"/>
        <path class="cls-1" d="M403.03,185.52c-1.04-2.55-1.55-5.52-1.55-8.92v-68.18h-.44c-1.96,2.07-4.7,4-8.14,5.81-3.44,1.81-7.14,3.26-10.99,4.33-3.85,1.07-7.55,1.67-11.07,1.78v.48c2.81,1.22,4.63,3.26,5.52,6.03.89,2.78,1.33,5.66,1.33,8.66v41.05c0,3.44-.59,6.37-1.78,8.85-.84,1.77-1.92,3.22-3.22,4.36-1.1-1.09-2.23-2.5-3.41-4.28-1.74-2.59-3.26-5.55-4.59-8.85l-17.51-43.67,5.29-5.6c3.7-3.92,7.14-7.07,10.29-9.51,3.15-2.44,6.18-4.33,9.07-5.66v-.48h-28.21v.48c1.52.81,2.78,1.92,3.7,3.33.93,1.37,1.33,2.89,1.22,4.55-.11,1.63-.96,3.41-2.63,5.26l-17.32,18.67v-75.82h-.44c-2,2.07-4.63,4-8,5.81-3.37,1.81-6.92,3.26-10.7,4.33-3.78,1.07-7.4,1.67-10.92,1.78v.48c2.07,1.22,3.74,3.26,4.96,6.03s1.85,5.66,1.85,8.66v82.44c0,3.22-.63,5.96-1.92,8.22-1.3,2.26-2.7,3.96-4.26,5.11v.48h35.31v-.48c-1.85-1.44-3.29-3.37-4.33-5.74-1.04-2.37-1.55-5.26-1.55-8.66v-24l.73-.78,8.78,24.78c.81,2.41,1.44,4.52,1.92,6.37.44,1.89.52,3.44.22,4.74-.33,1.3-1.37,2.41-3.11,3.33v.48h37.02v-.04h33.2v-.48c-1.85-1.15-3.29-3-4.33-5.52Z"/>
        <path class="cls-1" d="M481.06,185c-.93-2.59-1.41-5.37-1.41-8.37v-50.97c0-4.85-1.15-8.77-3.48-11.77-2.33-2.96-5.63-4.48-9.85-4.48-2.89,0-6.03.85-9.44,2.63-3.41,1.78-6.59,3.89-9.59,6.37-3,2.48-5.44,4.78-7.29,6.96l-.3-.15c.07-.81.19-1.96.22-3.48.07-1.48.07-2.96.07-4.4v-8.85h-.48c-2,2.07-4.63,4-7.99,5.81-3.37,1.81-6.92,3.26-10.7,4.33-3.78,1.07-7.4,1.67-10.92,1.78v.48c2.37,1.22,4.11,3,5.18,5.26,1.07,2.26,1.63,5.4,1.63,9.44v41.05c0,3-.59,5.74-1.85,8.22-1.26,2.48-2.89,4.52-4.96,6.18h.11v.48h36.39v-.48c-1.96-2.07-3.52-4.26-4.66-6.51-1.15-2.26-1.7-4.85-1.7-7.74v-48.97c1.74-1.15,3.74-2,5.96-2.55,2.22-.56,4-.81,5.33-.7,1.78.11,3.07.96,3.89,2.55.81,1.63,1.22,4.03,1.22,7.22v42.46c0,2.89-.52,5.48-1.55,7.74-1.04,2.3-2.59,4.44-4.66,6.51v.48h34.87v-.48c-1.78-1.44-3.11-3.44-4.03-6.03Z"/>
        <path class="cls-1" d="M604.7,146.65c-2.67-2.18-5.55-4.03-8.66-5.59-3.41-1.85-6.77-3.55-10.07-5.03-3.33-1.48-6.03-3.18-8.22-5.03-2.18-1.85-3.26-4.18-3.26-6.96,0-2.48.89-4.66,2.63-6.51,1.74-1.85,4.07-2.78,6.96-2.78,2.59,0,5.03.81,7.37,2.48,2.33,1.67,4.44,3.89,6.37,6.74,1.92,2.85,3.44,6.18,4.59,9.99h.44l6.81-22.47c-2.18-.48-4.37-.93-6.59-1.22-2.22-.33-4.4-.56-6.59-.7-2.18-.15-4.33-.22-6.51-.22-4.48,0-8.51.67-12.18,2-3.66,1.33-6.85,3.26-9.51,5.66-2.67,2.41-4.74,5.29-6.18,8.59-1.44,3.33-2.18,6.96-2.18,10.7s.56,6.96,1.7,9.7c1.11,2.74,2.63,5.15,4.55,7.22,1.92,2.04,4.07,3.85,6.44,5.33,2.37,1.52,4.81,2.89,7.29,4.11,3.22,1.52,6.26,3.07,9.14,4.55,2.89,1.48,5.26,3.18,7.11,5.03,1.85,1.85,2.78,4.22,2.78,6.81s-.93,4.78-2.78,6.51c-1.85,1.74-4.44,2.63-7.74,2.63-2.89,0-5.74-.85-8.59-2.63-2.85-1.78-5.52-4.48-8-8.07-2.48-3.59-4.78-8.18-6.96-13.77h-.48l-8.95,24.38c-1.45-2.12-3.22-3.94-5.42-5.39-2.52-1.67-5.33-3-8.37-4.03-3.04-1.04-6.11-1.89-9.14-2.63-3.04-.7-5.85-1.41-8.37-2.07-2.52-.67-4.55-1.44-6.11-2.33-1.55-.89-2.33-2-2.33-3.33,0-.52.04-1.07.15-1.63.11-.56.3-1.15.56-1.78.09-.23.17-.45.25-.67.67.04,1.32.11,2,.11,5.59,0,10.62-1.22,15.18-3.7,4.55-2.48,8.14-5.81,10.85-9.92,2.7-4.11,4.03-8.66,4.03-13.62s-1.33-9.48-4.03-13.62c-.96-1.48-2.09-2.81-3.28-4.08.96-.62,1.92-.92,2.84-.92,1.26,0,2.3.52,3.18,1.48.89.96,1.89,1.96,3.04,2.92,1.11,1,2.55,1.48,4.33,1.48,1.96,0,3.74-.89,5.33-2.7,1.59-1.81,2.41-4.22,2.41-7.22,0-2.67-.85-4.96-2.55-6.81-1.7-1.85-3.63-2.78-5.81-2.78s-4.33.85-6.44,2.55c-2.11,1.7-4.03,3.89-5.74,6.51-.81,1.27-1.55,2.53-2.23,3.8-1.76-1.58-3.72-2.98-5.91-4.17-4.55-2.48-9.7-3.7-15.18-3.7s-10.48,1.22-15.03,3.7c-4.55,2.48-8.14,5.77-10.77,9.92-2.63,4.11-3.96,8.66-3.96,13.62s1.33,9.48,3.96,13.62c2.63,4.15,6.22,7.44,10.77,9.92,3.18,1.73,6.54,2.81,10.18,3.33-1.69,1.73-3.43,3.39-5.29,4.89-2.63,2.11-5.4,4.03-8.29,5.66-2.89,1.63-6,3.11-9.29,4.33l-.15.44c.81,3.41,2.55,6.22,5.26,8.44,2.67,2.22,5.85,4,9.51,5.33,1.12.41,2.29.77,3.44,1.14-1.99.47-3.91.99-5.73,1.56-3.48,1.07-6.48,2.3-9.07,3.63-2.59,1.33-4.59,2.85-6.03,4.48-1.44,1.63-2.18,3.44-2.18,5.4,0,3,1.04,5.52,3.11,7.51,2.07,2.04,4.81,3.63,8.22,4.81,3.41,1.18,7.11,2.04,11.14,2.48,4.03.48,8,.7,11.92.7l.04.04c5.55,0,10.7-.59,15.4-1.78,4.66-1.18,8.7-2.92,12.07-5.18,3.33-2.26,5.96-5.07,7.81-8.37,1.85-3.29,2.78-7.07,2.78-11.29,0-3.23-.65-5.99-1.88-8.33,4.73,1.39,9.22,2.4,13.39,2.89,4.63.56,8.88.85,12.7.85,6.07,0,11.48-1.15,16.18-3.41,4.7-2.26,8.37-5.44,10.99-9.59,2.63-4.11,3.96-8.92,3.96-14.4l.04-.04c0-4.55-.85-8.37-2.55-11.55-1.7-3.18-3.92-5.81-6.59-8ZM512.01,137.1c0-6.92.56-12.44,1.63-16.51,1.07-4.07,2.67-6.11,5.03-6.11s4.11,2,5.26,6.03c1.15,4.03,1.7,9.66,1.7,16.58s-.59,12.44-1.78,16.51c-1.18,4.07-3,6.11-5.18,6.11s-3.81-2.04-4.96-6.11c-1.15-4.07-1.7-9.59-1.7-16.51ZM537.51,214.98c-1.3,1.48-3.22,2.63-5.74,3.41-2.52.78-5.66,1.33-9.37,1.63-6.29.11-11.1-.85-14.4-2.85-3.29-2.04-4.96-5-4.96-8.92,0-2.89.96-5.66,2.92-8.29,1.42-1.9,3.76-3.4,6.96-4.53,1.34.38,2.67.78,4.03,1.12,3.92,1,7.59,2,10.99,3.04,3.41,1,6.18,2.3,8.29,3.78,2.11,1.48,3.18,3.48,3.18,5.96,0,2.3-.63,4.15-1.92,5.66Z"/>
        <path class="cls-1" d="M643.27,136.43c1.37-3.04,2.04-6.37,2.04-10.22s-.7-7.29-2.04-10.29c-1.33-3-3.18-5.37-5.55-7.14-2.33-1.78-5.03-2.67-8.07-2.67s-5.7.89-8.07,2.67c-2.37,1.78-4.22,4.15-5.55,7.14-1.37,3-2.04,6.51-2.04,10.29s.7,7.18,2.04,10.22c1.33,3,3.18,5.4,5.55,7.18,2.33,1.78,5.03,2.67,8.07,2.67s5.7-.89,8.07-2.67c2.33-1.74,4.22-4.15,5.55-7.18ZM629.65,143.76c-2.63,0-4.92-.81-6.89-2.41-2-1.59-3.55-3.7-4.63-6.37-1.07-2.67-1.63-5.59-1.63-8.77s.52-6.11,1.63-8.77c1.11-2.63,2.63-4.78,4.63-6.37,1.96-1.59,4.18-2.41,6.89-2.41s5.03.81,6.96,2.41c1.92,1.59,3.44,3.7,4.55,6.37,1.07,2.63,1.63,5.59,1.63,8.77s-.56,6.11-1.63,8.77c-.63,1.48-1.42,2.77-2.3,3.93-.9-1.53-1.74-3.16-2.51-4.89-.92-2.06-1.73-4.05-2.39-5.89,1.25-.56,2.32-1.4,3.21-2.58.89-1.18,1.33-2.59,1.33-4.29,0-2.04-.7-3.66-2.15-4.92-1.41-1.26-3.59-1.89-6.55-1.89-1.37,0-2.7.04-4,.19-1.3.15-2.59.3-3.85.44l.04.04v.37c.59.22,1.04.63,1.33,1.18.3.56.44,1.22.44,1.96v15.55c0,.78-.15,1.41-.44,1.96-.3.52-.74.93-1.33,1.18v.37h8.22v-.37c-.59-.22-1-.63-1.26-1.18-.26-.56-.37-1.22-.37-1.96v-5.45c.13.03.26.03.39.06.93,2.62,2.23,4.86,3.98,6.69,1.66,1.73,3.52,2.96,5.52,3.88-.59.71-1.16,1.43-1.85,2-1.96,1.59-4.26,2.41-6.96,2.41ZM628.65,128.07s.01.02.02.04h-.02v-.04ZM628.57,127.49v-8.86c0-.93.15-1.63.44-2.15.3-.52.67-.78,1.18-.78.93,0,1.67.56,2.22,1.63.56,1.11.81,2.7.81,4.55s-.33,3.26-1,4.22c-.67.96-1.7,1.44-3.04,1.44-.18,0-.41-.04-.63-.06Z"/>
      </g>
    </g>
  </g>
</svg>