<?xml version="1.0" encoding="UTF-8"?>
<svg id="Layer_2" xmlns="http://www.w3.org/2000/svg" viewBox="0 0 823.71 189.21">
  <defs>
    <style>
      .cls-1 {
        fill: #fff;
      }
    </style>
  </defs>
  <g id="Layer_1-2" data-name="Layer_1">
    <g>
      <path class="cls-1" d="M823.55,30.81s.22-.35.13-.57l-1.23-3.66c-.57-1.76-2.16-3-4.01-3.13l-26.47-2.25c-3.08-.26-5.99-1.59-8.24-3.7l-17.88-16.61c-.53-.48-1.23-.79-1.98-.79-3.17-.04-12.29-.22-16.52,0-30,1.28-47.31,40.13-23.08,60.39,9.25,7.49,24.18,9.12,32.73,3.04,6.92-4.85,10.62-13.79,8.5-22.11-2.07-8.59-11.14-14.62-19.82-12.33-5.9,1.28-10.44,7.8-9.29,13.44.09.35.35.57.7.57h3.22c.31,0,.57-.22.7-.48,2.38-5.46,9.34-5.24,12.25-.53,3.04,5.42-2.42,12.33-8.19,11.81-7.31-.26-11.85-3.48-14.32-9.91-.84-2.16-.57-5.46-.35-7.66.44-9.47,8.59-17.62,18.06-17.97.53,0,1.1,0,1.67-.04,11.81.13,22.99,10.62,22.99,22.38v2.11c-.18,16.96-13.83,30.66-30.75,30.88l-11.06.13h-2.78c-5.24,0-10.31-2.07-14.01-5.81l-13.88-13.88c-.4-.4-1.15-.13-1.15.48v36.52l-.53.7c-2.51,3.17-7.05,8.02-10.66,9.82-.66.31-1.01.93-1.19,1.41l-19.21,48.67h10.62l39.07-37.93s.4-.26.66-.26h20.4c5.81,0,11.59-.44,17.36-1.28l13.17-1.94c.66-.09,1.32.13,1.81.66l36.91,41.41h14.36l-23.3-47.27-.13-.09,9.6-30c.84-2.69.97-5.55.31-8.28l-4.45-18.81c-.04-.22,0-.48.18-.62l4.38-3.79,3.55,10.49c.13.31.57.35.75.09l.35-.57c1.19-2.03,1.89-4.27,2.03-6.61h-.04l.6-9.66,7.46-6.46ZM788.58,37.64v-4.63c0-3.35,2.78-6.03,6.17-5.95l7.4.26-13.57,10.31Z"/>
      <path class="cls-1" d="M767.04,116.36l-8.33,1.76c-.48.09-.84.53-.84,1.06l.22,32.69h7.62l12.73-24.23-9.51-10.66c-.48-.53-1.19-.79-1.89-.62Z"/>
      <path class="cls-1" d="M719.24,120.01l-13.83,13.44h-.04l15.06,18.46,10.88-.09-10.53-31.41c-.22-.66-1.06-.88-1.54-.4Z"/>
      <path class="cls-1" d="M87.13,127.5c-2.78-6.08-5.37-12.16-7.84-18.24-2.46-6.05-4.78-11.92-6.97-17.54,3.87-1.73,7.54-3.88,10.98-6.56,4.93-3.83,8.85-8.63,11.89-14.49,3.04-5.86,4.54-12.6,4.54-20.57s-2.25-15.02-6.65-21.19c-4.4-6.12-10.53-10.92-18.41-14.36-7.88-3.44-17.05-5.15-27.49-5.15-8.24,0-16.25.31-23.96.93-7.71.62-15.46,1.54-23.21,2.78v.57c3.57,1.59,6.21,4.01,7.93,7.27,1.72,3.26,2.6,7.18,2.6,11.72v97.35c0,4.58-.88,8.46-2.6,11.72-1.72,3.26-4.36,5.68-7.93,7.27v.57h50.3v-.57c-3.44-1.59-6.03-4.01-7.84-7.27-1.81-3.26-2.69-7.18-2.69-11.72v-34.52c.52.11,1.04.2,1.56.3,3.75,10.19,8.5,19.44,14.39,27.66,6.65,9.29,14.18,17.22,22.69,23.79,8.5,6.61,17.4,11.76,26.74,15.59l.35-.57c-3.44-5.29-6.7-10.88-9.69-16.78-3.04-5.9-5.9-11.89-8.68-17.97ZM39.78,32.66c0-5.64.93-10,2.69-13.08,1.76-3.08,4.18-4.63,7.27-4.63,3.66,0,6.78,1.63,9.38,4.89,2.6,3.26,4.58,7.84,5.99,13.74,1.41,5.9,2.11,12.86,2.11,20.84,0,11.32-2.03,20.13-6.08,26.39-4.05,6.25-10.09,9.38-18.06,9.38-1.06,0-2.15-.07-3.3-.19v-57.34Z"/>
      <path class="cls-1" d="M183.29,141.24c-.75.48-1.59.88-2.51,1.19s-1.81.44-2.69.44c-1.85,0-3.44-.79-4.8-2.47-1.37-1.67-2.03-4.01-2.03-7.09,0-4.18.04-8.81.18-13.92.09-5.11.22-10.35.35-15.68.09-5.37.22-10.57.35-15.59.13-5.07.18-9.6.18-13.66,0-5.07-1.1-9.25-3.39-12.55-2.25-3.3-5.64-5.77-10.13-7.44-4.49-1.67-10.04-2.51-16.69-2.51-4.58,0-9.12.62-13.66,1.76-4.58,1.19-8.72,2.82-12.47,4.98-3.74,2.16-6.74,4.8-9.03,8.02-2.25,3.22-3.39,6.83-3.39,10.88,0,3.79,1.06,6.83,3.13,9.03,2.11,2.2,4.67,3.3,7.75,3.3,2.6,0,4.89-.75,6.83-2.29,1.94-1.54,3.7-3.52,5.24-5.99,1.54-2.47,2.86-5.07,4.05-7.75,1.15-2.73,2.29-5.29,3.39-7.75,1.1-2.47,2.2-4.45,3.39-5.99,1.15-1.54,2.51-2.29,3.96-2.29,1.15,0,1.98.57,2.6,1.76.62,1.19.93,2.69.93,4.54,0,2.95-.04,6.65-.09,11.06-.04,4.45-.13,9.29-.26,14.58-.04,2.5-.11,5.06-.17,7.58-9.84,1.46-18.04,3.82-24.55,7.05-6.61,3.26-11.5,7.14-14.76,11.63-3.25,4.48-4.87,9.35-4.89,14.62.01,4.54.89,8.35,2.6,11.55,1.72,3.17,4.01,5.59,6.83,7.27,2.82,1.67,5.81,2.51,9.03,2.51,2.6,0,5.2-.44,7.84-1.37,2.64-.93,5.37-2.38,8.19-4.4,2.82-2.03,5.81-4.76,9.03-8.19h.29c.23,2.94,1,5.34,2.31,7.22,1.72,2.42,3.96,4.23,6.65,5.33,2.73,1.1,5.59,1.67,8.68,1.67,2.69,0,5.46-.35,8.28-1.1,2.82-.7,5.51-1.85,8.02-3.3,2.51-1.45,4.54-3.22,5.99-5.33l-.57-1.28ZM139.77,137.1c-1.37.48-2.64.75-3.88.75-2.33,0-4.14-1.1-5.42-3.3-1.28-2.2-1.94-5.55-1.94-9.96,0-3.52.4-7.05,1.19-10.48.79-3.44,2.38-6.39,4.71-8.77,2.27-2.36,5.56-3.82,9.8-4.47-.04,1.66-.07,3.28-.11,4.95-.09,5.42-.22,10.66-.26,15.68-.09,4.99-.09,9.46-.09,13.46-1.43.96-2.76,1.69-4.01,2.13Z"/>
      <path class="cls-1" d="M100.13,130.72s0-.03,0-.05c0-.03,0-.05,0-.08v.13Z"/>
      <path class="cls-1" d="M266.81,141.82c-1.1-3.08-1.67-6.39-1.67-9.96v-60.66c0-5.77-1.37-10.44-4.14-14.01-2.78-3.52-6.7-5.33-11.72-5.33-3.44,0-7.18,1.01-11.23,3.13-4.05,2.11-7.84,4.63-11.41,7.58-3.57,2.95-6.48,5.68-8.68,8.28l-.35-.18c.09-.97.22-2.33.26-4.14.09-1.76.09-3.52.09-5.24v-10.53h-.57c-2.38,2.47-5.51,4.76-9.51,6.92-4.01,2.16-8.24,3.88-12.73,5.15s-8.81,1.98-12.99,2.11v.57c2.82,1.45,4.89,3.57,6.17,6.25,1.28,2.69,1.94,6.43,1.94,11.23v48.85c0,3.57-.7,6.83-2.2,9.78-1.5,2.95-3.44,5.37-5.9,7.36h.13v.57h43.3v-.57c-2.33-2.47-4.18-5.07-5.55-7.75s-2.03-5.77-2.03-9.21v-58.28c2.07-1.37,4.45-2.38,7.09-3.04,2.64-.66,4.76-.97,6.34-.84,2.11.13,3.66,1.15,4.63,3.04.97,1.94,1.45,4.8,1.45,8.59v50.53c0,3.44-.62,6.52-1.85,9.21-1.23,2.73-3.08,5.29-5.55,7.75v.57h41.49v-.57c-2.11-1.72-3.7-4.1-4.8-7.18Z"/>
      <path class="cls-1" d="M372.57,42.92c2.47,1.63,5.15,2.47,8.1,2.47s5.81-.79,8.19-2.47c2.42-1.67,4.36-3.88,5.81-6.65,1.45-2.77,2.2-5.68,2.2-9.12s-.75-6.52-2.2-9.29c-1.5-2.78-3.44-4.98-5.81-6.65-2.38-1.63-5.24-2.47-8.19-2.47s-5.64.79-8.1,2.47c-2.47,1.67-4.4,3.88-5.81,6.65-1.41,2.73-2.11,5.99-2.11,9.29s.71,6.34,2.11,9.12c1.41,2.78,3.35,4.98,5.81,6.65Z"/>
      <path class="cls-1" d="M397.94,142.43c-1.23-3.04-1.85-6.56-1.85-10.62V50.68h-.53c-2.33,2.47-5.59,4.76-9.69,6.92-4.1,2.16-8.5,3.88-13.08,5.15-4.58,1.28-8.99,1.98-13.17,2.11v.57c3.35,1.45,5.51,3.88,6.56,7.18,1.06,3.3,1.59,6.74,1.59,10.31v48.85c0,4.1-.7,7.58-2.11,10.53-1,2.1-2.29,3.83-3.83,5.18-1.31-1.3-2.66-2.98-4.05-5.1-2.07-3.08-3.88-6.61-5.46-10.53l-20.84-51.96,6.3-6.67c4.4-4.67,8.5-8.41,12.25-11.32,3.74-2.91,7.36-5.15,10.79-6.74v-.57h-33.57v.57c1.81.97,3.3,2.29,4.4,3.96,1.1,1.63,1.59,3.44,1.45,5.42-.13,1.94-1.15,4.05-3.13,6.25l-20.62,22.22V2.8h-.53c-2.38,2.47-5.51,4.76-9.52,6.92-4.01,2.16-8.24,3.88-12.73,5.15-4.49,1.28-8.81,1.98-12.99,2.11v.57c2.47,1.45,4.45,3.88,5.9,7.18,1.45,3.3,2.2,6.74,2.2,10.31v98.1c0,3.83-.75,7.09-2.29,9.78-1.54,2.69-3.22,4.71-5.07,6.08v.57h42.02v-.57c-2.2-1.72-3.92-4.01-5.15-6.83-1.23-2.82-1.85-6.25-1.85-10.31v-28.56l.87-.92,10.45,29.48c.97,2.86,1.72,5.37,2.29,7.58.53,2.25.62,4.1.26,5.64-.4,1.54-1.63,2.86-3.7,3.96v.57h44.05v-.04h39.51v-.57c-2.2-1.37-3.92-3.57-5.15-6.56Z"/>
      <path class="cls-1" d="M490.8,141.82c-1.1-3.08-1.67-6.39-1.67-9.96v-60.66c0-5.77-1.37-10.44-4.14-14.01-2.78-3.52-6.7-5.33-11.72-5.33-3.44,0-7.18,1.01-11.23,3.13-4.05,2.11-7.84,4.63-11.41,7.58-3.57,2.95-6.48,5.68-8.68,8.28l-.35-.18c.09-.97.22-2.33.26-4.14.09-1.76.09-3.52.09-5.24v-10.53h-.57c-2.38,2.47-5.51,4.76-9.51,6.92-4.01,2.16-8.24,3.88-12.73,5.15-4.49,1.28-8.81,1.98-12.99,2.11v.57c2.82,1.45,4.89,3.57,6.17,6.25,1.28,2.69,1.94,6.43,1.94,11.23v48.85c0,3.57-.7,6.83-2.2,9.78-1.5,2.95-3.44,5.37-5.9,7.36h.13v.57h43.3v-.57c-2.33-2.47-4.18-5.07-5.55-7.75-1.37-2.69-2.03-5.77-2.03-9.21v-58.28c2.07-1.37,4.45-2.38,7.09-3.04,2.64-.66,4.76-.97,6.34-.84,2.11.13,3.66,1.15,4.63,3.04.97,1.94,1.45,4.8,1.45,8.59v50.53c0,3.44-.62,6.52-1.85,9.21-1.23,2.73-3.08,5.29-5.55,7.75v.57h41.49v-.57c-2.11-1.72-3.7-4.1-4.8-7.18Z"/>
      <path class="cls-1" d="M637.93,96.18c-3.17-2.6-6.61-4.8-10.31-6.65-4.05-2.2-8.06-4.23-11.98-5.99-3.96-1.76-7.18-3.79-9.78-5.99-2.6-2.2-3.88-4.98-3.88-8.28,0-2.95,1.06-5.55,3.13-7.75,2.07-2.2,4.85-3.3,8.28-3.3,3.08,0,5.99.97,8.77,2.95,2.78,1.98,5.29,4.63,7.58,8.02,2.29,3.39,4.1,7.36,5.46,11.89h.53l8.1-26.74c-2.6-.57-5.2-1.1-7.84-1.45-2.64-.4-5.24-.66-7.84-.84-2.6-.18-5.15-.26-7.75-.26-5.33,0-10.13.79-14.49,2.38-4.36,1.59-8.15,3.88-11.32,6.74-3.17,2.86-5.64,6.3-7.36,10.22-1.72,3.96-2.6,8.28-2.6,12.73s.66,8.28,2.03,11.54c1.32,3.26,3.13,6.12,5.42,8.59,2.29,2.42,4.85,4.58,7.66,6.34,2.82,1.81,5.73,3.44,8.68,4.89,3.83,1.81,7.44,3.66,10.88,5.42,3.44,1.76,6.25,3.79,8.46,5.99,2.2,2.2,3.3,5.02,3.3,8.11s-1.1,5.68-3.3,7.75c-2.2,2.07-5.29,3.13-9.21,3.13-3.44,0-6.83-1.01-10.22-3.13-3.39-2.11-6.56-5.33-9.51-9.6-2.95-4.27-5.68-9.74-8.28-16.39h-.57l-10.65,29.02c-1.72-2.52-3.84-4.69-6.44-6.42-3-1.98-6.34-3.57-9.96-4.8-3.61-1.23-7.27-2.25-10.88-3.13-3.61-.84-6.96-1.67-9.96-2.47-3-.79-5.42-1.72-7.27-2.78s-2.78-2.38-2.78-3.96c0-.62.04-1.28.18-1.94.13-.66.35-1.37.66-2.11.11-.27.2-.53.3-.8.8.04,1.57.13,2.38.13,6.65,0,12.64-1.45,18.06-4.4,5.42-2.95,9.69-6.92,12.91-11.81,3.22-4.89,4.8-10.31,4.8-16.21s-1.59-11.28-4.8-16.21c-1.15-1.76-2.48-3.35-3.9-4.85,1.14-.74,2.28-1.09,3.37-1.09,1.5,0,2.73.62,3.79,1.76s2.25,2.33,3.61,3.48c1.32,1.19,3.04,1.76,5.15,1.76,2.33,0,4.45-1.06,6.34-3.22,1.89-2.16,2.86-5.02,2.86-8.59,0-3.17-1.01-5.9-3.04-8.1-2.03-2.2-4.32-3.3-6.92-3.3s-5.15,1.01-7.66,3.04c-2.51,2.03-4.8,4.63-6.83,7.75-.97,1.51-1.84,3.02-2.65,4.52-2.09-1.88-4.42-3.54-7.04-4.96-5.42-2.95-11.54-4.4-18.06-4.4s-12.47,1.45-17.88,4.4c-5.42,2.95-9.69,6.87-12.82,11.81-3.13,4.89-4.71,10.31-4.71,16.21s1.59,11.28,4.71,16.21c3.13,4.93,7.4,8.85,12.82,11.81,3.79,2.06,7.79,3.35,12.11,3.96-2.01,2.06-4.08,4.04-6.3,5.82-3.13,2.51-6.43,4.8-9.87,6.74-3.44,1.94-7.14,3.7-11.06,5.15l-.18.53c.97,4.05,3.04,7.4,6.25,10.04,3.17,2.64,6.96,4.76,11.32,6.34,1.34.49,2.72.91,4.09,1.36-2.37.56-4.65,1.18-6.82,1.86-4.14,1.28-7.71,2.73-10.79,4.32-3.08,1.59-5.46,3.39-7.18,5.33-1.72,1.94-2.6,4.1-2.6,6.43,0,3.57,1.23,6.56,3.7,8.94,2.47,2.42,5.73,4.32,9.78,5.73,4.05,1.41,8.46,2.42,13.26,2.95,4.8.57,9.51.84,14.18.84l.04.04c6.61,0,12.73-.7,18.32-2.11,5.55-1.41,10.35-3.48,14.36-6.17,3.96-2.69,7.09-6.03,9.29-9.96,2.2-3.92,3.3-8.41,3.3-13.44,0-3.84-.77-7.12-2.24-9.92,5.63,1.65,10.97,2.85,15.94,3.44,5.51.66,10.57,1.01,15.11,1.01,7.22,0,13.66-1.37,19.25-4.05,5.59-2.69,9.96-6.48,13.08-11.41,3.13-4.89,4.71-10.62,4.71-17.14l.04-.04c0-5.42-1.01-9.96-3.04-13.74-2.03-3.79-4.67-6.92-7.84-9.51ZM527.63,84.82c0-8.24.66-14.8,1.94-19.65,1.28-4.85,3.17-7.27,5.99-7.27s4.89,2.38,6.26,7.18c1.37,4.8,2.03,11.5,2.03,19.73s-.7,14.8-2.11,19.65c-1.41,4.85-3.57,7.27-6.17,7.27s-4.54-2.42-5.9-7.27c-1.37-4.85-2.03-11.41-2.03-19.65ZM557.98,177.5c-1.54,1.76-3.83,3.13-6.83,4.05-3,.92-6.74,1.59-11.14,1.94-7.49.13-13.21-1.01-17.14-3.39-3.92-2.42-5.9-5.95-5.9-10.62,0-3.44,1.15-6.74,3.48-9.87,1.69-2.26,4.47-4.05,8.28-5.39,1.59.46,3.17.92,4.8,1.34,4.67,1.19,9.03,2.38,13.08,3.61,4.05,1.19,7.36,2.73,9.87,4.49,2.51,1.76,3.79,4.14,3.79,7.09,0,2.73-.75,4.93-2.29,6.74Z"/>
      <path class="cls-1" d="M683.83,84.02c1.63-3.61,2.42-7.58,2.42-12.16s-.84-8.68-2.42-12.25c-1.59-3.57-3.79-6.39-6.61-8.5-2.78-2.11-5.99-3.17-9.6-3.17s-6.78,1.06-9.6,3.17c-2.82,2.11-5.02,4.93-6.61,8.5-1.63,3.57-2.42,7.75-2.42,12.25s.84,8.55,2.42,12.16c1.59,3.57,3.79,6.43,6.61,8.55,2.77,2.11,5.99,3.17,9.6,3.17s6.78-1.06,9.6-3.17c2.78-2.07,5.02-4.93,6.61-8.55ZM667.62,92.74c-3.13,0-5.86-.97-8.19-2.86-2.38-1.89-4.23-4.4-5.51-7.58-1.28-3.17-1.94-6.65-1.94-10.44s.62-7.27,1.94-10.44c1.32-3.13,3.13-5.68,5.51-7.58,2.33-1.89,4.98-2.86,8.19-2.86s5.99.97,8.28,2.86c2.29,1.89,4.1,4.4,5.42,7.58,1.28,3.13,1.94,6.65,1.94,10.44s-.66,7.27-1.94,10.44c-.74,1.76-1.68,3.29-2.74,4.67-1.07-1.82-2.07-3.76-2.99-5.82-1.1-2.45-2.06-4.82-2.85-7.01,1.49-.66,2.76-1.67,3.82-3.08,1.06-1.41,1.59-3.08,1.59-5.11,0-2.42-.84-4.36-2.55-5.86-1.67-1.5-4.27-2.25-7.8-2.25-1.63,0-3.22.04-4.76.22-1.54.18-3.08.35-4.58.53l.04.04v.44c.7.26,1.23.75,1.59,1.41.35.66.53,1.45.53,2.33v18.5c0,.92-.18,1.67-.53,2.33-.35.62-.88,1.1-1.59,1.41v.44h9.78v-.44c-.7-.26-1.19-.75-1.5-1.41-.31-.66-.44-1.45-.44-2.33v-6.48c.16.04.31.04.46.07,1.1,3.11,2.65,5.79,4.74,7.96,1.98,2.05,4.19,3.52,6.56,4.62-.7.85-1.38,1.71-2.2,2.39-2.33,1.89-5.07,2.86-8.28,2.86ZM666.43,74.07s.01.03.02.04h-.02v-.04ZM666.34,73.38v-10.54c0-1.1.18-1.94.53-2.55.35-.62.79-.92,1.41-.92,1.1,0,1.98.66,2.64,1.94.66,1.32.97,3.22.97,5.42s-.4,3.88-1.19,5.02c-.79,1.15-2.03,1.72-3.61,1.72-.22,0-.49-.05-.75-.07Z"/>
    </g>
  </g>
</svg>