<svg xmlns:xlink="http://www.w3.org/1999/xlink" xmlns="http://www.w3.org/2000/svg" width="138" height="30" viewBox="0 0 138 30" fill="none">
<circle cx="15" cy="15" r="15" fill="#009DD7"/>
<path fill-rule="evenodd" clip-rule="evenodd" d="M25.3666 7.02588H5.72559V9.30119H6.78213V11.5847H9.08721V25.3803L21.8406 22.3113L21.9125 11.5847H24.2156V9.30119H25.3666V7.02588ZM11.4824 23.0205V11.5834H12.6622L12.6673 22.6488L11.4824 23.0205ZM19.5457 20.6846L18.37 21.0532V11.5834H19.5395L19.5457 20.6846ZM17.1934 21.4331L16.1215 21.7771V11.5834H17.1719L17.1934 21.4331ZM14.8841 22.0233L13.9734 22.3713L13.8902 11.6108H14.8513L14.8841 22.0233Z" fill="white"/>
<path fill-rule="evenodd" clip-rule="evenodd" d="M107.991 19.6895C106.77 19.7466 105.58 19.2896 104.712 18.4295C103.843 17.5693 103.374 16.3846 103.419 15.1628C103.375 13.9413 103.843 12.7569 104.712 11.8969C105.581 11.0369 106.77 10.58 107.991 10.6368C108.74 10.6312 109.486 10.7468 110.199 10.9791L109.934 12.179C109.345 12.0252 108.74 11.9465 108.132 11.9449C106.014 11.9449 104.972 13.2572 104.972 15.1621C104.972 17.0671 106.014 18.3793 108.132 18.3793C108.739 18.3801 109.344 18.308 109.934 18.1644L110.199 19.3671C109.484 19.5873 108.739 19.6962 107.991 19.6902V19.6895ZM114.947 19.6892C112.405 19.6892 110.779 17.5877 110.779 15.1625C110.779 12.7373 112.405 10.6372 114.947 10.6372C117.489 10.6372 119.131 12.7387 119.131 15.1625C119.131 17.5864 117.506 19.6892 114.947 19.6892ZM114.947 11.9309C113.323 11.9309 112.333 13.2411 112.333 15.1625C112.333 17.0839 113.323 18.3961 114.947 18.3961C116.571 18.3961 117.576 17.0853 117.576 15.1625C117.576 13.2397 116.571 11.9309 114.947 11.9309ZM131.947 19.5463V14.0483C131.947 12.7559 131.453 12.0728 130.182 12.0728C128.963 12.0728 127.797 13.1516 127.797 14.8923V19.547H126.227V14.0483C126.227 12.7559 125.714 12.0728 124.447 12.0728C123.228 12.0728 122.082 13.168 122.082 14.9108V19.5449H120.511V10.7975H122.047V12.3254C122.633 11.288 123.73 10.6437 124.922 10.636C126.089 10.5421 127.172 11.2516 127.551 12.3596C128.233 11.3006 129.4 10.6535 130.659 10.636C132.602 10.636 133.52 11.9297 133.52 13.8696V19.5456H131.946L131.947 19.5463ZM103.372 18.7789C103.364 19.2894 102.945 19.6975 102.434 19.692C101.924 19.6865 101.514 19.2695 101.517 18.7589C101.52 18.2484 101.935 17.8364 102.446 17.837C102.694 17.8392 102.93 17.9397 103.104 18.1165C103.278 18.2933 103.374 18.5318 103.372 18.7796V18.7789ZM40 19.5959V7.63406H42.6491V17.2788H48.3168V19.5959H40ZM54.58 19.5954V18.6611C53.9768 19.406 53.0471 19.8084 52.0911 19.7385C51.3574 19.7973 50.6318 19.5521 50.0843 19.0602C49.5368 18.5684 49.2154 17.8731 49.1956 17.1373C49.1956 15.4493 50.2224 14.5506 51.985 14.5506H54.4575V13.901C54.4575 13.0036 54.0331 12.6805 52.5326 12.6805C51.6472 12.6845 50.7628 12.7444 49.8849 12.8598L49.6905 10.9925C50.7091 10.7972 51.7433 10.6948 52.7804 10.6865C55.3576 10.6865 56.9819 11.6749 56.9819 13.992V19.5954H54.5814H54.58ZM54.459 16.1476H52.9052C52.1632 16.1476 51.7223 16.4166 51.7223 17.0806C51.7223 17.6747 52.1111 17.9807 52.9052 17.9807C53.3309 17.9997 53.7445 17.8356 54.0414 17.5299C54.3383 17.2242 54.4903 16.806 54.459 16.381V16.1476ZM67.928 19.5954H65.474L64.0441 13.8832L62.5614 19.5954H60.1109L57.7836 10.8474H60.1109L61.4115 16.7568L62.9304 10.8481H65.1373L66.6206 16.7568L67.928 10.8474H70.293L67.928 19.5954ZM73.9818 22.5224H71.5292L72.5703 19.579L69.3751 10.8474H71.829L73.8059 16.8102L75.7116 10.8474H78.1662L73.9818 22.5224ZM80.4785 15.9673C80.4785 17.0084 81.2903 17.7641 83.02 17.7641C83.8385 17.759 84.6526 17.6439 85.4405 17.4219L85.8806 19.2543C84.9557 19.5993 83.9733 19.7638 82.9865 19.7389C79.7892 19.7389 78.0252 17.9428 78.0252 15.213C78.0252 12.8261 79.6324 10.687 82.2787 10.687C84.7683 10.687 86.3577 12.4831 86.3577 15.2848V15.9693H80.4785V15.9673ZM82.2787 12.6274C81.3062 12.6175 80.509 13.3963 80.4963 14.3688H83.9743C83.8689 13.3099 83.3021 12.6274 82.2787 12.6274ZM93.1352 13.0225C92.9059 13.0034 92.6601 12.9856 92.4822 12.9856C91.0529 12.9856 90.2404 14.1711 90.2404 15.6976V19.5952H87.6968V10.8478H90.1685V12.338C90.5804 11.3601 91.5268 10.7141 92.5876 10.687C92.7766 10.6926 92.965 10.7104 93.1516 10.7404L93.1352 13.0225ZM97.4091 19.7392C96.1467 19.7014 94.9017 19.4337 93.7354 18.9492L94.2145 17.1695C95.2366 17.5365 96.3079 17.7485 97.3927 17.7986C98.4523 17.7986 98.6632 17.5111 98.6632 17.1695C98.6632 16.7588 98.3647 16.6301 97.3564 16.2173C94.9743 15.2111 94.0708 14.8162 94.0708 13.2534C94.0708 11.5476 95.2707 10.6865 97.6891 10.6865C98.7547 10.6956 99.8135 10.8588 100.832 11.1711L100.497 13.0577C99.5934 12.8059 98.6634 12.6614 97.7261 12.6271C96.7185 12.6271 96.4898 12.8058 96.4898 13.1302C96.4898 13.6498 96.9122 13.7223 98.3784 14.3151C100.444 15.142 101.116 15.5 101.116 17.0456C101.116 18.6802 99.6174 19.7392 97.4112 19.7392H97.4091ZM134.295 8.90478C134.42 8.97609 134.561 9.01426 134.705 9.01567C134.779 9.03045 134.855 9.01273 134.914 8.96707C134.974 8.92141 135.011 8.85227 135.015 8.77746C134.994 8.6225 134.869 8.50275 134.713 8.4886C134.462 8.44518 134.271 8.23808 134.249 7.98412C134.256 7.83456 134.326 7.69508 134.442 7.59977C134.557 7.50446 134.708 7.4621 134.856 7.48305C134.998 7.47926 135.138 7.50856 135.267 7.56862L135.193 7.82736C135.088 7.77244 134.97 7.74401 134.851 7.74454C134.785 7.73101 134.717 7.74614 134.663 7.78613C134.609 7.82613 134.575 7.88719 134.569 7.954C134.569 8.0909 134.668 8.15045 134.896 8.23807C135.086 8.27063 135.244 8.40398 135.307 8.5862C135.371 8.76841 135.33 8.97068 135.201 9.11423C135.072 9.25779 134.875 9.31993 134.688 9.27647C134.526 9.27794 134.367 9.24061 134.223 9.16763L134.295 8.90478ZM137.061 8.53914C137.051 8.31462 137.038 8.04629 137.04 7.80808H137.033C136.977 8.02028 136.906 8.25507 136.827 8.47479L136.576 9.22775H136.337L136.109 8.48369C136.041 8.26123 135.982 8.0237 135.936 7.80671H135.931C135.923 8.03397 135.914 8.3112 135.901 8.54872L135.863 9.24897H135.571L135.685 7.50827H136.096L136.321 8.20783C136.382 8.41319 136.436 8.61854 136.48 8.81294H136.487C136.532 8.62402 136.591 8.40977 136.657 8.20578L136.893 7.50895H137.3L137.399 9.24966H137.094L137.061 8.53914Z" fill="#1A202C"/>
</svg>