<svg xmlns:xlink="http://www.w3.org/1999/xlink" xmlns="http://www.w3.org/2000/svg" width="1776" height="527" viewBox="0 0 1776 527" fill="none"><path d="M760.386 214.648L760.244 241.429H633V37.3843H760.244V64.1652H666.299V125.662H741.399V151.593H666.299V214.648H760.386Z" fill="black"></path><path d="M914.744 241.429H885.554C883.192 241.429 881.303 240.815 879.886 239.587C878.564 238.359 877.477 236.989 876.627 235.478L843.328 182.058C842.478 185.27 841.344 188.056 839.927 190.418L809.746 235.478C808.707 236.989 807.526 238.359 806.203 239.587C804.975 240.815 803.322 241.429 801.244 241.429H774.038L824.057 166.896L776.022 96.8975H805.211C807.573 96.8975 809.273 97.2754 810.312 98.0311C811.446 98.6924 812.438 99.7315 813.288 101.148L846.02 152.16C846.87 149.042 848.193 146.067 849.988 143.233L877.619 101.715C879.508 98.5034 881.917 96.8975 884.845 96.8975H912.76L864.724 165.621L914.744 241.429Z" fill="black"></path><path d="M965.823 205.155C970.074 210.634 974.703 214.507 979.71 216.774C984.811 218.946 990.432 220.033 996.572 220.033C1008.47 220.033 1017.73 215.687 1024.34 206.997C1031.05 198.306 1034.4 185.364 1034.4 168.171C1034.4 159.292 1033.65 151.735 1032.14 145.5C1030.63 139.171 1028.45 134.022 1025.62 130.055C1022.79 126.087 1019.34 123.206 1015.28 121.411C1011.21 119.616 1006.63 118.719 1001.53 118.719C993.785 118.719 987.078 120.419 981.41 123.82C975.837 127.126 970.641 131.897 965.823 138.132V205.155ZM964.265 117.869C970.311 110.784 977.159 105.069 984.811 100.723C992.557 96.3778 1001.53 94.2051 1011.73 94.2051C1019.86 94.2051 1027.23 95.8582 1033.84 99.1645C1040.45 102.376 1046.12 107.1 1050.84 113.334C1055.56 119.569 1059.2 127.315 1061.75 136.573C1064.4 145.736 1065.72 156.269 1065.72 168.171C1065.72 178.846 1064.26 188.812 1061.33 198.07C1058.49 207.233 1054.38 215.215 1049 222.017C1043.61 228.724 1037.1 234.014 1029.45 237.887C1021.79 241.665 1013.15 243.555 1003.51 243.555C995.013 243.555 987.787 242.185 981.835 239.445C975.978 236.706 970.641 232.927 965.823 228.11V289.465H935.358V96.8973H953.779C957.936 96.8973 960.581 98.8339 961.714 102.707L964.265 117.869Z" fill="black"></path><path d="M1190.12 152.868C1190.12 147.767 1189.36 143.044 1187.85 138.698C1186.43 134.258 1184.31 130.433 1181.47 127.221C1178.64 123.914 1175.1 121.364 1170.85 119.569C1166.69 117.68 1161.87 116.735 1156.39 116.735C1145.34 116.735 1136.65 119.9 1130.32 126.229C1123.99 132.558 1119.98 141.438 1118.28 152.868H1190.12ZM1117.43 171.572C1117.81 179.791 1119.08 186.923 1121.25 192.969C1123.43 198.92 1126.31 203.879 1129.9 207.847C1133.58 211.814 1137.93 214.79 1142.93 216.774C1148.03 218.663 1153.7 219.608 1159.94 219.608C1165.89 219.608 1171.04 218.946 1175.38 217.624C1179.73 216.207 1183.51 214.696 1186.72 213.09C1189.93 211.389 1192.67 209.878 1194.94 208.555C1197.2 207.138 1199.28 206.43 1201.17 206.43C1203.63 206.43 1205.52 207.374 1206.84 209.264L1215.48 220.458C1211.89 224.709 1207.83 228.298 1203.3 231.227C1198.76 234.155 1193.94 236.564 1188.84 238.454C1183.74 240.248 1178.5 241.524 1173.11 242.279C1167.73 243.13 1162.49 243.555 1157.39 243.555C1147.37 243.555 1138.07 241.901 1129.47 238.595C1120.97 235.194 1113.55 230.235 1107.22 223.717C1100.99 217.199 1096.08 209.122 1092.49 199.487C1088.99 189.851 1087.25 178.752 1087.25 166.188C1087.25 156.174 1088.8 146.822 1091.92 138.132C1095.13 129.441 1099.67 121.884 1105.52 115.46C1111.48 109.036 1118.66 103.982 1127.06 100.298C1135.56 96.5197 1145.15 94.6304 1155.83 94.6304C1164.71 94.6304 1172.93 96.0946 1180.48 99.023C1188.04 101.857 1194.56 106.061 1200.04 111.634C1205.52 117.207 1209.77 124.056 1212.79 132.18C1215.91 140.21 1217.47 149.373 1217.47 159.67C1217.47 164.393 1216.95 167.557 1215.91 169.163C1214.87 170.769 1212.98 171.572 1210.24 171.572H1117.43Z" fill="black"></path><path d="M1274.64 123.678C1279.18 114.515 1284.65 107.336 1291.08 102.14C1297.5 96.8501 1305.2 94.2051 1314.17 94.2051C1317.29 94.2051 1320.22 94.5829 1322.96 95.3387C1325.7 95.9999 1328.16 97.039 1330.33 98.456L1328.2 121.411C1327.82 123.017 1327.21 124.15 1326.36 124.812C1325.6 125.379 1324.56 125.662 1323.24 125.662C1321.83 125.662 1319.8 125.426 1317.15 124.953C1314.51 124.387 1311.72 124.103 1308.79 124.103C1304.54 124.103 1300.76 124.717 1297.45 125.945C1294.24 127.173 1291.31 128.968 1288.67 131.33C1286.12 133.692 1283.85 136.573 1281.87 139.974C1279.88 143.374 1278.04 147.247 1276.34 151.593V241.429H1245.88V96.8973H1263.59C1266.8 96.8973 1269.02 97.5113 1270.25 98.7394C1271.48 99.873 1272.33 101.904 1272.8 104.832L1274.64 123.678Z" fill="black"></path><path d="M1490.77 241.429H1460.3V120.844H1389.88V202.887C1389.88 208.083 1391.16 212.051 1393.71 214.79C1396.26 217.529 1399.66 218.899 1403.91 218.899C1406.27 218.899 1408.3 218.616 1410 218.049C1411.7 217.388 1413.17 216.727 1414.39 216.065C1415.62 215.31 1416.66 214.648 1417.51 214.081C1418.46 213.42 1419.35 213.09 1420.2 213.09C1421.9 213.09 1423.27 214.034 1424.31 215.924L1433.38 230.802C1428.66 234.958 1423.09 238.17 1416.66 240.437C1410.24 242.61 1403.63 243.696 1396.82 243.696C1384.83 243.696 1375.57 240.343 1369.05 233.636C1362.63 226.834 1359.42 217.293 1359.42 205.013V120.844H1343.55C1341.85 120.844 1340.38 120.325 1339.15 119.286C1337.92 118.152 1337.31 116.499 1337.31 114.326V101.999L1360.69 98.5979L1367.35 56.7971C1367.82 55.1912 1368.63 53.9159 1369.76 52.9713C1370.89 51.9321 1372.4 51.4126 1374.29 51.4126H1389.88V98.8813H1490.77V241.429ZM1497 52.5462C1497 55.2857 1496.44 57.8834 1495.3 60.3395C1494.26 62.7012 1492.8 64.8266 1490.91 66.7159C1489.02 68.5108 1486.8 69.975 1484.25 71.1086C1481.8 72.1477 1479.2 72.6672 1476.46 72.6672C1473.72 72.6672 1471.12 72.1477 1468.66 71.1086C1466.3 69.975 1464.18 68.5108 1462.29 66.7159C1460.49 64.8266 1459.03 62.7012 1457.9 60.3395C1456.86 57.8834 1456.34 55.2857 1456.34 52.5462C1456.34 49.7122 1456.86 47.0672 1457.9 44.6111C1459.03 42.0605 1460.49 39.8878 1462.29 38.093C1464.18 36.2037 1466.3 34.7395 1468.66 33.7004C1471.12 32.5668 1473.72 32 1476.46 32C1479.2 32 1481.8 32.5668 1484.25 33.7004C1486.8 34.7395 1489.02 36.2037 1490.91 38.093C1492.8 39.8878 1494.26 42.0605 1495.3 44.6111C1496.44 47.0672 1497 49.7122 1497 52.5462Z" fill="black"></path><path d="M1615.57 123.112C1614.81 124.434 1613.96 125.379 1613.01 125.945C1612.07 126.512 1610.89 126.796 1609.47 126.796C1607.87 126.796 1606.12 126.323 1604.23 125.379C1602.34 124.34 1600.12 123.206 1597.57 121.978C1595.02 120.75 1592 119.664 1588.5 118.719C1585.1 117.68 1581.09 117.16 1576.46 117.16C1572.68 117.16 1569.23 117.633 1566.11 118.577C1563.09 119.427 1560.49 120.703 1558.32 122.403C1556.24 124.009 1554.64 125.946 1553.5 128.213C1552.37 130.385 1551.8 132.747 1551.8 135.298C1551.8 138.698 1552.84 141.532 1554.92 143.799C1557 146.067 1559.74 148.05 1563.14 149.751C1566.54 151.357 1570.41 152.821 1574.76 154.143C1579.1 155.466 1583.54 156.883 1588.08 158.394C1592.61 159.906 1597.05 161.653 1601.4 163.637C1605.74 165.621 1609.61 168.077 1613.01 171.005C1616.42 173.839 1619.15 177.335 1621.23 181.491C1623.31 185.553 1624.35 190.512 1624.35 196.369C1624.35 203.171 1623.12 209.453 1620.67 215.215C1618.21 220.977 1614.62 225.984 1609.9 230.235C1605.17 234.486 1599.27 237.792 1592.19 240.154C1585.19 242.515 1577.17 243.696 1568.1 243.696C1563.09 243.696 1558.22 243.224 1553.5 242.279C1548.87 241.429 1544.43 240.248 1540.18 238.737C1536.03 237.131 1532.11 235.242 1528.42 233.069C1524.83 230.896 1521.62 228.535 1518.79 225.984L1525.87 214.365C1526.72 212.948 1527.76 211.862 1528.99 211.106C1530.31 210.256 1531.92 209.831 1533.81 209.831C1535.79 209.831 1537.73 210.492 1539.62 211.814C1541.6 213.042 1543.87 214.412 1546.42 215.924C1549.06 217.435 1552.23 218.852 1555.91 220.174C1559.59 221.403 1564.18 222.017 1569.66 222.017C1574.19 222.017 1578.11 221.497 1581.42 220.458C1584.72 219.324 1587.46 217.813 1589.63 215.924C1591.81 214.034 1593.41 211.909 1594.45 209.547C1595.49 207.091 1596.01 204.493 1596.01 201.754C1596.01 198.07 1594.97 195.047 1592.89 192.685C1590.82 190.324 1588.03 188.293 1584.53 186.592C1581.13 184.892 1577.21 183.38 1572.77 182.058C1568.43 180.735 1563.99 179.318 1559.45 177.807C1554.92 176.295 1550.43 174.548 1545.99 172.564C1541.65 170.58 1537.73 168.077 1534.23 165.054C1530.83 161.937 1528.09 158.205 1526.01 153.86C1523.93 149.42 1522.9 144.036 1522.9 137.706C1522.9 131.944 1524.03 126.465 1526.3 121.269C1528.66 116.074 1532.06 111.492 1536.5 107.525C1541.03 103.557 1546.56 100.44 1553.08 98.1728C1559.69 95.8112 1567.29 94.6304 1575.89 94.6304C1585.62 94.6304 1594.45 96.189 1602.39 99.3064C1610.32 102.424 1616.98 106.675 1622.37 112.059L1615.57 123.112Z" fill="black"></path><path d="M1747.78 152.868C1747.78 147.767 1747.02 143.044 1745.51 138.698C1744.09 134.258 1741.97 130.433 1739.13 127.221C1736.3 123.914 1732.76 121.364 1728.5 119.569C1724.35 117.68 1719.53 116.735 1714.05 116.735C1703 116.735 1694.31 119.9 1687.98 126.229C1681.65 132.558 1677.63 141.438 1675.93 152.868H1747.78ZM1675.08 171.572C1675.46 179.791 1676.74 186.923 1678.91 192.969C1681.08 198.92 1683.96 203.879 1687.55 207.847C1691.24 211.814 1695.58 214.79 1700.59 216.774C1705.69 218.663 1711.36 219.608 1717.59 219.608C1723.55 219.608 1728.69 218.946 1733.04 217.624C1737.38 216.207 1741.16 214.696 1744.37 213.09C1747.59 211.389 1750.33 209.878 1752.59 208.555C1754.86 207.138 1756.94 206.43 1758.83 206.43C1761.28 206.43 1763.17 207.374 1764.5 209.264L1773.14 220.458C1769.55 224.709 1765.49 228.298 1760.95 231.227C1756.42 234.155 1751.6 236.564 1746.5 238.454C1741.4 240.248 1736.16 241.524 1730.77 242.279C1725.39 243.13 1720.14 243.555 1715.04 243.555C1705.03 243.555 1695.72 241.901 1687.13 238.595C1678.63 235.194 1671.21 230.235 1664.88 223.717C1658.65 217.199 1653.74 209.122 1650.15 199.487C1646.65 189.851 1644.9 178.752 1644.9 166.188C1644.9 156.174 1646.46 146.822 1649.58 138.132C1652.79 129.441 1657.32 121.884 1663.18 115.46C1669.13 109.036 1676.31 103.982 1684.72 100.298C1693.22 96.5197 1702.81 94.6304 1713.48 94.6304C1722.36 94.6304 1730.58 96.0946 1738.14 99.023C1745.7 101.857 1752.22 106.061 1757.69 111.634C1763.17 117.207 1767.42 124.056 1770.45 132.18C1773.56 140.21 1775.12 149.373 1775.12 159.67C1775.12 164.393 1774.6 167.557 1773.56 169.163C1772.53 170.769 1770.64 171.572 1767.9 171.572H1675.08Z" fill="black"></path><path d="M666.299 314.165V379.488H746.075V406.269H666.299V491.429H633V287.385H760.244V314.165H666.299Z" fill="black"></path><path d="M818.759 346.898V491.429H788.294V346.898H818.759ZM823.86 303.255C823.86 305.994 823.293 308.592 822.16 311.048C821.121 313.504 819.656 315.677 817.767 317.566C815.878 319.361 813.658 320.825 811.107 321.959C808.651 322.998 806.006 323.517 803.172 323.517C800.433 323.517 797.835 322.998 795.379 321.959C793.017 320.825 790.939 319.361 789.144 317.566C787.349 315.677 785.885 313.504 784.752 311.048C783.712 308.592 783.193 305.994 783.193 303.255C783.193 300.421 783.712 297.776 784.752 295.32C785.885 292.863 787.349 290.738 789.144 288.943C790.939 287.054 793.017 285.59 795.379 284.551C797.835 283.417 800.433 282.85 803.172 282.85C806.006 282.85 808.651 283.417 811.107 284.551C813.658 285.59 815.878 287.054 817.767 288.943C819.656 290.738 821.121 292.863 822.16 295.32C823.293 297.776 823.86 300.421 823.86 303.255Z" fill="black"></path><path d="M885.519 366.027C888.636 362.815 891.848 359.934 895.154 357.383C898.555 354.738 902.144 352.471 905.923 350.582C909.702 348.692 913.716 347.228 917.967 346.189C922.218 345.15 926.847 344.63 931.854 344.63C939.789 344.63 946.732 345.953 952.683 348.598C958.729 351.243 963.783 354.974 967.845 359.792C972.001 364.61 975.119 370.419 977.197 377.221C979.275 383.928 980.314 391.343 980.314 399.467V491.429H949.991V399.467C949.991 389.737 947.724 382.18 943.189 376.796C938.75 371.411 931.948 368.719 922.785 368.719C915.984 368.719 909.654 370.278 903.798 373.395C898.035 376.512 892.603 380.763 887.502 386.148V491.429H857.037V346.898H875.458C879.614 346.898 882.259 348.834 883.393 352.707L885.519 366.027Z" fill="black"></path><path d="M1108.14 382.464C1103.89 376.985 1099.21 373.159 1094.11 370.986C1089.01 368.813 1083.48 367.727 1077.53 367.727C1065.63 367.727 1056.33 372.12 1049.62 380.905C1042.91 389.596 1039.56 402.49 1039.56 419.588C1039.56 428.468 1040.31 436.073 1041.82 442.402C1043.34 448.636 1045.51 453.738 1048.34 457.705C1051.18 461.673 1054.62 464.554 1058.69 466.349C1062.75 468.143 1067.33 469.041 1072.43 469.041C1080.18 469.041 1086.84 467.388 1092.41 464.082C1098.08 460.681 1103.32 455.91 1108.14 449.77V382.464ZM1138.6 281.717V491.429H1120.18C1116.12 491.429 1113.52 489.493 1112.39 485.62L1109.7 469.891C1103.65 476.976 1096.76 482.691 1089.01 487.037C1081.36 491.382 1072.43 493.555 1062.23 493.555C1054.11 493.555 1046.74 491.949 1040.12 488.737C1033.51 485.431 1027.84 480.66 1023.12 474.425C1018.4 468.191 1014.71 460.492 1012.07 451.329C1009.52 442.071 1008.24 431.491 1008.24 419.588C1008.24 408.819 1009.66 398.853 1012.49 389.69C1015.42 380.527 1019.58 372.592 1024.96 365.885C1030.35 359.084 1036.87 353.793 1044.52 350.015C1052.26 346.142 1060.91 344.205 1070.45 344.205C1078.95 344.205 1086.18 345.575 1092.13 348.315C1098.08 350.96 1103.42 354.691 1108.14 359.509V281.717H1138.6Z" fill="black"></path><path d="M1270.65 402.868C1270.65 397.767 1269.9 393.044 1268.39 388.698C1266.97 384.258 1264.84 380.433 1262.01 377.221C1259.18 373.915 1255.63 371.364 1251.38 369.569C1247.23 367.68 1242.41 366.735 1236.93 366.735C1225.88 366.735 1217.19 369.9 1210.86 376.229C1204.53 382.558 1200.51 391.438 1198.81 402.868H1270.65ZM1197.96 421.572C1198.34 429.791 1199.62 436.923 1201.79 442.969C1203.96 448.92 1206.84 453.879 1210.43 457.847C1214.12 461.814 1218.46 464.79 1223.47 466.774C1228.57 468.663 1234.24 469.608 1240.47 469.608C1246.42 469.608 1251.57 468.946 1255.92 467.624C1260.26 466.207 1264.04 464.696 1267.25 463.09C1270.46 461.389 1273.2 459.878 1275.47 458.555C1277.74 457.138 1279.82 456.43 1281.71 456.43C1284.16 456.43 1286.05 457.374 1287.37 459.264L1296.02 470.458C1292.43 474.709 1288.37 478.299 1283.83 481.227C1279.3 484.155 1274.48 486.564 1269.38 488.453C1264.28 490.248 1259.03 491.524 1253.65 492.279C1248.27 493.13 1243.02 493.555 1237.92 493.555C1227.91 493.555 1218.6 491.901 1210.01 488.595C1201.5 485.194 1194.09 480.235 1187.76 473.717C1181.53 467.199 1176.61 459.122 1173.02 449.487C1169.53 439.851 1167.78 428.752 1167.78 416.188C1167.78 406.174 1169.34 396.822 1172.46 388.132C1175.67 379.441 1180.2 371.884 1186.06 365.46C1192.01 359.036 1199.19 353.982 1207.6 350.298C1216.1 346.52 1225.69 344.63 1236.36 344.63C1245.24 344.63 1253.46 346.095 1261.02 349.023C1268.58 351.857 1275.09 356.061 1280.57 361.634C1286.05 367.208 1290.3 374.056 1293.32 382.18C1296.44 390.21 1298 399.373 1298 409.67C1298 414.393 1297.48 417.557 1296.44 419.163C1295.4 420.769 1293.51 421.572 1290.77 421.572H1197.96Z" fill="black"></path><path d="M1355.18 373.678C1359.71 364.515 1365.19 357.336 1371.61 352.14C1378.04 346.85 1385.74 344.205 1394.71 344.205C1397.83 344.205 1400.76 344.583 1403.49 345.339C1406.23 346 1408.69 347.039 1410.86 348.456L1408.74 371.411C1408.36 373.017 1407.75 374.151 1406.9 374.812C1406.14 375.379 1405.1 375.662 1403.78 375.662C1402.36 375.662 1400.33 375.426 1397.69 374.954C1395.04 374.387 1392.25 374.103 1389.33 374.103C1385.07 374.103 1381.3 374.718 1377.99 375.946C1374.78 377.174 1371.85 378.968 1369.2 381.33C1366.65 383.692 1364.39 386.573 1362.4 389.974C1360.42 393.374 1358.58 397.247 1356.88 401.593V491.429H1326.41V346.898H1344.12C1347.34 346.898 1349.56 347.512 1350.78 348.74C1352.01 349.873 1352.86 351.904 1353.33 354.833L1355.18 373.678Z" fill="black"></path><path d="M0 263.5V527H263.5H527V263.5C527 23.4222 526.766 0 523.252 0C521.144 0 478.048 18.972 427.221 42.16L334.938 84.32H265.374H196.044L103.526 42.16C52.7 18.972 8.66622 0 5.62133 0H0V263.5ZM178.712 170.982C196.044 177.54 217.124 196.747 225.322 213.611C228.601 220.403 232.583 232.583 234.222 240.78C241.015 278.724 219.7 318.776 183.396 336.577C171.216 342.433 167.469 343.136 145.218 343.136C122.498 343.136 119.453 342.433 106.805 336.109C89.0044 327.208 72.6089 310.813 63.9427 293.48C58.0871 281.067 57.3844 277.553 57.3844 255.302C57.3844 232.114 57.8529 229.538 65.1138 215.016C85.7253 172.856 133.741 154.118 178.712 170.982ZM405.673 167.235C465.4 181.288 494.209 251.086 461.418 301.678C450.878 318.308 438.464 329.082 421.6 337.046C410.357 342.433 405.673 343.136 385.296 343.136C364.918 343.136 360.234 342.433 348.523 336.812C306.363 317.137 285.751 271.464 299.57 227.43C313.624 182.459 359.531 156.226 405.673 167.235ZM283.175 303.786C293.012 311.047 301.444 317.371 301.912 317.605C303.084 318.542 267.482 381.314 264.671 382.953C263.734 383.656 255.536 371.711 246.87 356.72C238.204 341.496 229.772 326.74 227.898 323.929C224.853 319.245 225.556 318.308 242.888 304.723C252.96 296.994 262.095 290.67 263.266 290.67C264.437 290.436 273.337 296.291 283.175 303.786Z" fill="black"></path><path d="M128.354 204.71C105.4 213.142 95.3289 226.961 94.1578 251.789C93.4551 265.139 94.1578 270.526 97.9053 277.787C107.743 296.993 123.904 306.831 145.218 306.831C191.594 306.831 215.485 252.491 184.099 218.295C171.92 204.71 145.452 198.152 128.354 204.71Z" fill="black"></path><path d="M366.792 204.71C354.613 209.161 346.649 215.25 340.091 224.853C315.966 260.221 340.794 306.831 383.422 306.831C406.844 306.597 426.519 293.246 433.311 272.869C437.996 258.816 435.419 236.33 427.924 225.322C415.511 206.35 387.638 196.981 366.792 204.71Z" fill="black"></path></svg>