<svg xmlns:xlink="http://www.w3.org/1999/xlink" xmlns="http://www.w3.org/2000/svg" width="137" height="19" viewBox="0 0 137 19" fill="none">
<path d="M9.03395 12.4096C8.38151 13.062 7.32225 13.062 6.67011 12.4096L3.00759 8.74613C2.35483 8.09368 2.35483 7.03505 3.00759 6.38291C3.55787 5.8317 4.39758 5.74816 5.03884 6.12702L2.16323 3.20142C0.824794 4.5886 0 6.4739 0 8.55359C0 12.8111 3.45105 16.2628 7.70919 16.2628C11.967 16.2628 15.4187 12.8111 15.4187 8.55359C15.4187 7.78687 15.305 7.04685 15.0963 6.34782L9.03395 12.4096Z" fill="#1F1F1F"/>
<path d="M4.19844 6.9257C4.35371 7.01762 4.50215 7.12786 4.63537 7.26201L7.33429 9.95999L7.53055 10.15C7.74762 10.3345 8.07306 10.3267 8.27926 10.1215L15.1366 3.26442C13.2889 1.2577 10.6419 0 7.69979 0C4.79623 0 2.18023 1.22664 0.336548 3.18833L4.19844 6.9257Z" fill="#4285F4"/>
<path d="M22.4198 5.68231V3.12158H33.0319V5.68231H29.1744V14.9125H26.2773V5.68231H22.4198Z" fill="#1F1F1F"/>
<path d="M33.0819 14.9126V6.00252H35.8109V6.89532C36.1025 6.54721 36.4451 6.27797 36.8385 6.08667C37.2314 5.89569 37.6692 5.80035 38.1521 5.80035C38.4105 5.81184 38.6179 5.83141 38.7754 5.85904C38.9325 5.8873 39.067 5.94072 39.1797 6.01929V8.39462C39.0002 8.31605 38.7977 8.25115 38.5735 8.20053C38.3484 8.14991 38.1186 8.12506 37.8826 8.12506C37.4556 8.12506 37.0596 8.22599 36.6951 8.42816C36.3302 8.63001 36.0352 8.90577 35.8106 9.25357V14.9129H33.0819V14.9126Z" fill="#1F1F1F"/>
<path d="M42.5991 6.00251V11.123C42.5991 11.6062 42.7478 11.9963 43.0456 12.2941C43.3431 12.5906 43.7335 12.74 44.2161 12.74C44.5642 12.74 44.8732 12.6779 45.1427 12.554C45.4123 12.431 45.6368 12.2574 45.8163 12.0323V6.0022H48.545V14.9123H45.8163V14.3061C45.4905 14.553 45.1229 14.7446 44.713 14.879C44.303 15.0135 43.8736 15.0812 43.4242 15.0812C42.3798 15.0812 41.5265 14.7446 40.8641 14.0704C40.2011 13.3962 39.8704 12.5379 39.8704 11.4932V6.00189H42.5991V6.00251Z" fill="#1F1F1F"/>
<path d="M49.118 13.9191L50.4152 12.0832C50.9763 12.4198 51.4875 12.6639 51.948 12.8158C52.4079 12.9673 52.8629 13.0425 53.3125 13.0425C53.7613 13.0425 54.1181 12.9788 54.3817 12.8487C54.6457 12.7204 54.7777 12.5487 54.7777 12.336C54.7777 12.1668 54.7044 12.0301 54.5587 11.9227C54.4128 11.8162 54.1827 11.7413 53.8681 11.696L52.0999 11.4258C51.2238 11.2913 50.5499 10.9966 50.0782 10.5417C49.6068 10.0874 49.3711 9.49517 49.3711 8.76447C49.3711 7.86607 49.7133 7.15896 50.3987 6.64222C51.0838 6.12579 52.0213 5.86774 53.2119 5.86774C53.8522 5.86774 54.4947 5.95996 55.1407 6.14567C55.786 6.33106 56.3841 6.59781 56.9344 6.94593L55.6375 8.6977C55.1547 8.41666 54.6941 8.21201 54.2566 8.08283C53.8184 7.95364 53.3805 7.88935 52.9427 7.88935C52.5942 7.88935 52.3135 7.94805 52.1005 8.06575C51.8868 8.18407 51.7803 8.3384 51.7803 8.52938C51.7803 8.70919 51.8583 8.85234 52.0157 8.95886C52.1731 9.06569 52.4427 9.14674 52.8244 9.20326L54.5932 9.47281C55.4692 9.59609 56.1456 9.88551 56.6232 10.3401C57.1002 10.7951 57.3387 11.3702 57.3387 12.0665C57.3387 12.4938 57.2378 12.8922 57.0356 13.263C56.8338 13.6328 56.5555 13.9539 56.2018 14.2225C55.8481 14.4927 55.4245 14.703 54.9301 14.8548C54.4357 15.0054 53.9029 15.0821 53.3296 15.0821C52.4877 15.0821 51.7045 14.984 50.98 14.7874C50.2549 14.5896 49.6345 14.3014 49.118 13.9191Z" fill="#1F1F1F"/>
<path d="M59.0554 12.2009V8.27625H57.2531V6.00247H59.0554V3.7113L61.7845 3.12189V6.00247H64.2775V8.27625H61.7845V11.6621C61.7845 12.0555 61.8711 12.3329 62.0456 12.4959C62.2192 12.6589 62.5254 12.7403 62.9636 12.7403C63.1769 12.7403 63.3788 12.7263 63.5698 12.6984C63.7608 12.6704 63.9682 12.6223 64.1927 12.5543V14.7607C63.9462 14.8402 63.631 14.9048 63.2496 14.9554C62.868 15.0047 62.5478 15.0311 62.2897 15.0311C61.2224 15.0311 60.4168 14.792 59.8725 14.315C59.3278 13.8377 59.0554 13.1334 59.0554 12.2009Z" fill="#1F1F1F"/>
<path d="M62.4623 14.9404L67.2962 3.14917H70.6152L75.3817 14.9404H72.249L71.1699 12.0937H66.5717L65.4773 14.9404H62.4623ZM67.4477 9.78605H70.3115L68.8964 6.01298L67.4477 9.78605Z" fill="#4285F4"/>
<path d="M75.6842 14.9405V6.02978H78.4142V6.63595C78.7384 6.38907 79.1064 6.19809 79.5166 6.06332C79.9268 5.92854 80.3563 5.86084 80.8054 5.86084C81.8503 5.86084 82.7031 6.19809 83.3661 6.87165C84.0281 7.54522 84.3595 8.40448 84.3595 9.44883V14.9401H81.6305V9.81962C81.6305 9.33673 81.482 8.94638 81.1839 8.64857C80.8867 8.35107 80.4967 8.20201 80.0135 8.20201C79.6657 8.20201 79.357 8.26412 79.0874 8.3874C78.8179 8.511 78.5927 8.68521 78.4142 8.90973V14.9398H75.6842V14.9405Z" fill="#4285F4"/>
<path d="M88.4022 15.092C87.4585 15.092 86.684 14.8339 86.0769 14.3175C85.471 13.8014 85.1682 13.1384 85.1682 12.3291C85.1682 11.4875 85.4909 10.8304 86.1362 10.3587C86.7815 9.88701 87.6833 9.65099 88.8397 9.65099C89.1869 9.65099 89.5307 9.67367 89.8673 9.7187C90.204 9.76373 90.5353 9.82552 90.8617 9.90409V9.4656C90.8617 9.01687 90.7176 8.68241 90.4316 8.46348C90.1446 8.24455 89.7208 8.13493 89.159 8.13493C88.8118 8.13493 88.4183 8.19114 87.9808 8.30324C87.542 8.41566 87.0371 8.59546 86.4638 8.84234L85.4868 6.83811C86.2054 6.51236 86.9103 6.26827 87.6013 6.10523C88.2919 5.94251 88.9739 5.86084 89.6481 5.86084C90.8834 5.86084 91.8433 6.15554 92.5287 6.74526C93.2125 7.33467 93.5563 8.16288 93.5563 9.2299V14.9401H90.8614V14.401C90.5011 14.6489 90.1217 14.8249 89.7242 14.9314C89.3248 15.0383 88.8845 15.092 88.4022 15.092ZM87.7619 12.2785C87.7619 12.5592 87.8848 12.7791 88.1314 12.9362C88.3792 13.093 88.7208 13.1716 89.159 13.1716C89.4854 13.1716 89.7912 13.1387 90.0782 13.0707C90.3642 13.0033 90.625 12.8968 90.8614 12.7514V11.6055C90.6024 11.5375 90.3378 11.4878 90.0692 11.454C89.799 11.4208 89.5242 11.4034 89.2444 11.4034C88.7717 11.4034 88.4072 11.4792 88.1491 11.6307C87.8907 11.7822 87.7619 11.9987 87.7619 12.2785Z" fill="#4285F4"/>
<path d="M97.4811 2.56012V14.9405H94.7511V3.14922L97.4811 2.56012Z" fill="#4285F4"/>
<path d="M101.287 15.0749V15.0582L97.8683 6.02979H100.883L102.854 11.6382L105.145 6.02979H108.093L104.101 15.3957C103.606 16.5522 103.033 17.372 102.383 17.8543C101.731 18.3365 100.872 18.5791 99.8054 18.5791C99.5918 18.5791 99.3843 18.5704 99.1819 18.553C98.9797 18.5372 98.8123 18.5111 98.6769 18.4778V16.1528C98.7999 16.1755 98.9272 16.1929 99.0564 16.2034C99.1856 16.2146 99.339 16.2208 99.5185 16.2208C99.9458 16.2208 100.311 16.1249 100.614 15.9348C100.917 15.7426 101.141 15.4566 101.287 15.0749Z" fill="#4285F4"/>
<path d="M110.08 12.2278V8.30353H108.277V6.02975H110.08V3.73857L112.809 3.14917V6.02975H115.302V8.30353H112.809V11.6887C112.809 12.0831 112.896 12.3604 113.07 12.5225C113.244 12.6865 113.55 12.7669 113.988 12.7669C114.201 12.7669 114.403 12.753 114.595 12.725C114.785 12.6971 114.992 12.6499 115.217 12.5819V14.7883C114.971 14.8668 114.656 14.9314 114.274 14.982C113.892 15.0323 113.573 15.0578 113.314 15.0578C112.247 15.0578 111.441 14.8196 110.897 14.3417C110.353 13.8656 110.08 13.1613 110.08 12.2278Z" fill="#4285F4"/>
<path d="M117.306 5.20434C116.89 5.20434 116.537 5.05869 116.245 4.76647C115.954 4.47425 115.807 4.12055 115.807 3.70504C115.807 3.28985 115.954 2.93614 116.245 2.64392C116.537 2.35171 116.89 2.20544 117.306 2.20544C117.722 2.20544 118.076 2.35171 118.368 2.64392C118.659 2.93614 118.805 3.28985 118.805 3.70504C118.805 4.12055 118.659 4.47425 118.368 4.76647C118.076 5.05869 117.722 5.20434 117.306 5.20434ZM118.671 6.02976V14.9404H115.941V6.02976H118.671Z" fill="#4285F4"/>
<path d="M124.38 12.7511C124.751 12.7511 125.094 12.6726 125.408 12.5148C125.723 12.3568 126.025 12.1161 126.319 11.79L127.936 13.475C127.486 13.9914 126.936 14.3923 126.284 14.6787C125.633 14.9656 124.954 15.1088 124.246 15.1088C123.583 15.1088 122.962 14.9908 122.385 14.7554C121.806 14.5191 121.307 14.1936 120.886 13.7784C120.465 13.3623 120.133 12.8741 119.893 12.312C119.65 11.7512 119.53 11.1444 119.53 10.4935C119.53 9.84199 119.65 9.2327 119.893 8.66565C120.133 8.09891 120.465 7.61012 120.886 7.1999C121.307 6.78998 121.806 6.46485 122.385 6.22293C122.962 5.98133 123.583 5.86053 124.246 5.86053C124.976 5.86053 125.672 6.0068 126.334 6.29902C126.997 6.59123 127.559 6.99557 128.02 7.51169L126.352 9.24637C126.038 8.89826 125.717 8.64019 125.391 8.47156C125.066 8.30325 124.707 8.2191 124.314 8.2191C123.73 8.2191 123.238 8.43803 122.84 8.87589C122.441 9.31406 122.242 9.85317 122.242 10.4932C122.242 11.1329 122.446 11.6692 122.856 12.1018C123.266 12.535 123.774 12.7511 124.38 12.7511Z" fill="#4285F4"/>
<path d="M131.438 15.092C130.494 15.092 129.72 14.8339 129.114 14.3175C128.508 13.8014 128.204 13.1384 128.204 12.3291C128.204 11.4875 128.527 10.8304 129.172 10.3587C129.817 9.88701 130.719 9.65099 131.876 9.65099C132.224 9.65099 132.567 9.67367 132.903 9.7187C133.24 9.76373 133.571 9.82552 133.897 9.90409V9.4656C133.897 9.01687 133.754 8.68241 133.468 8.46348C133.181 8.24455 132.758 8.13493 132.196 8.13493C131.848 8.13493 131.455 8.19114 131.017 8.30324C130.579 8.41566 130.074 8.59546 129.501 8.84234L128.524 6.83811C129.242 6.51236 129.947 6.26827 130.637 6.10523C131.328 5.94251 132.01 5.86084 132.685 5.86084C133.92 5.86084 134.879 6.15554 135.565 6.74526C136.249 7.33467 136.592 8.16288 136.592 9.2299V14.9401H133.897V14.401C133.538 14.6489 133.159 14.8249 132.76 14.9314C132.361 15.0383 131.921 15.092 131.438 15.092ZM130.798 12.2785C130.798 12.5592 130.921 12.7791 131.168 12.9362C131.415 13.093 131.758 13.1716 132.196 13.1716C132.521 13.1716 132.828 13.1387 133.114 13.0707C133.4 13.0033 133.662 12.8968 133.897 12.7514V11.6055C133.639 11.5375 133.375 11.4878 133.105 11.454C132.836 11.4208 132.561 11.4034 132.28 11.4034C131.808 11.4034 131.443 11.4792 131.185 11.6307C130.927 11.7822 130.798 11.9987 130.798 12.2785Z" fill="#4285F4"/>
</svg>