<?xml version="1.0" encoding="UTF-8"?>
<svg id="Layer_2" xmlns="http://www.w3.org/2000/svg" viewBox="0 0 192.31 188.12">
  <defs>
    <style>
      .cls-1 {
        fill: #fff;
      }
    </style>
  </defs>
  <g id="Layer_1-2" data-name="Layer_1">
    <g>
      <path class="cls-1" d="M192.12,38.04s.27-.43.16-.71l-1.52-4.51c-.71-2.18-2.66-3.7-4.95-3.86l-32.68-2.77c-3.81-.33-7.4-1.96-10.17-4.57L120.88,1.11c-.65-.6-1.52-.98-2.45-.98-3.92-.05-15.17-.27-20.39,0-37.03,1.58-58.4,49.54-28.49,74.55,11.42,9.24,29.85,11.26,40.4,3.75,8.54-5.98,13.11-17.02,10.5-27.3-2.56-10.6-13.76-18.05-24.47-15.23-7.29,1.58-12.89,9.62-11.47,16.59.11.43.44.71.87.71h3.97c.38,0,.71-.27.87-.6,2.94-6.74,11.53-6.47,15.12-.65,3.75,6.69-2.99,15.23-10.11,14.57-9.03-.33-14.63-4.3-17.67-12.24-1.03-2.66-.71-6.74-.43-9.46.54-11.69,10.6-21.75,22.3-22.19.65,0,1.36,0,2.07-.05,14.57.16,28.39,13.11,28.39,27.62v2.61c-.22,20.94-17.07,37.85-37.96,38.12l-13.65.16h-3.43c-6.47,0-12.72-2.56-17.29-7.18l-17.13-17.13c-.49-.49-1.41-.16-1.41.6v45.08l-.65.87c-3.1,3.92-8.7,9.9-13.16,12.13-.82.38-1.25,1.14-1.47,1.74L0,187.31h13.11l48.23-46.82s.49-.33.82-.33h25.18c7.18,0,14.3-.54,21.43-1.58l16.26-2.39c.82-.11,1.63.16,2.23.82l45.57,51.12h17.73l-28.77-58.35-.16-.11,11.85-37.03c1.03-3.32,1.2-6.85.38-10.22l-5.49-23.22c-.05-.27,0-.6.22-.76l5.41-4.68,4.38,12.95c.16.38.71.44.92.11l.44-.71c1.47-2.5,2.34-5.27,2.5-8.16h-.05l.74-11.93,9.21-7.98ZM148.94,46.46v-5.71c0-4.13,3.43-7.45,7.61-7.34l9.14.33-16.75,12.72Z"/>
      <path class="cls-1" d="M122.35,143.64l-10.28,2.17c-.6.11-1.03.65-1.03,1.31l.27,40.35h9.41l15.72-29.91-11.75-13.16c-.6-.65-1.47-.98-2.34-.76Z"/>
      <path class="cls-1" d="M63.35,148.15l-17.08,16.59h-.05l18.6,22.78,13.43-.11-13-38.77c-.27-.82-1.31-1.09-1.9-.49Z"/>
    </g>
  </g>
</svg>